<svg width="39" height="40" viewBox="0 0 39 40" fill="none" xmlns="http://www.w3.org/2000/svg">
<g opacity="0.3" clip-path="url(#clip0_18_322)">
<path d="M15.1448 20.1347C14.1364 20.1347 13.3131 19.8029 12.6749 19.1391C12.0366 18.4754 11.7175 17.5691 11.7175 16.4203C11.7175 15.6672 11.8643 15.0098 12.1579 14.4482C12.4515 13.8865 12.8536 13.4589 13.3641 13.1653C13.8875 12.859 14.481 12.7058 15.1448 12.7058C16.166 12.7058 16.9956 13.0441 17.6339 13.7206C18.2721 14.3843 18.5912 15.2842 18.5912 16.4203C18.5912 17.5691 18.2721 18.4754 17.6339 19.1391C16.9956 19.8029 16.166 20.1347 15.1448 20.1347ZM23.0715 12.8781H25.8287L16.6765 26.2809H13.9194L23.0715 12.8781ZM15.1448 18.3158C15.4894 18.3158 15.7639 18.1626 15.9681 17.8563C16.1723 17.5499 16.2745 17.0713 16.2745 16.4203C16.2745 15.7693 16.1723 15.2906 15.9681 14.9843C15.7639 14.6779 15.4894 14.5248 15.1448 14.5248C14.8129 14.5248 14.5385 14.6843 14.3215 15.0034C14.1173 15.3098 14.0151 15.7821 14.0151 16.4203C14.0151 17.0585 14.1173 17.5372 14.3215 17.8563C14.5385 18.1626 14.8129 18.3158 15.1448 18.3158ZM24.6033 26.4532C23.5821 26.4532 22.7524 26.1213 22.1142 25.4575C21.4888 24.7938 21.176 23.8875 21.176 22.7387C21.176 21.6027 21.4951 20.7028 22.1334 20.039C22.7716 19.3625 23.5949 19.0242 24.6033 19.0242C25.6244 19.0242 26.4541 19.3625 27.0924 20.039C27.7306 20.7028 28.0497 21.6027 28.0497 22.7387C28.0497 23.8875 27.7306 24.7938 27.0924 25.4575C26.4541 26.1213 25.6244 26.4532 24.6033 26.4532ZM24.6033 24.6342C24.9479 24.6342 25.2224 24.4811 25.4266 24.1747C25.6308 23.8684 25.7329 23.3897 25.7329 22.7387C25.7329 22.0877 25.6308 21.609 25.4266 21.3027C25.2224 20.9964 24.9479 20.8432 24.6033 20.8432C24.2586 20.8432 23.9842 20.9964 23.78 21.3027C23.5757 21.609 23.4736 22.0877 23.4736 22.7387C23.4736 23.3897 23.5757 23.8684 23.78 24.1747C23.9842 24.4811 24.2586 24.6342 24.6033 24.6342Z" fill="#FF5900"/>
<path fill-rule="evenodd" clip-rule="evenodd" d="M24.82 4.92926L19.9233 -0.0585938L15.0265 4.92926L8.13317 3.77224L7.1034 10.6857L0.846497 13.8015L4.07705 19.9999L0.846497 26.1983L7.1034 29.3141L8.13317 36.2276L15.0265 35.0705L19.9233 40.0584L24.82 35.0705L31.7133 36.2276L32.7431 29.3141L39 26.1983L35.7695 19.9999L39 13.8015L32.7431 10.6857L31.7133 3.77224L24.82 4.92926ZM29.4184 6.93095L23.8669 7.86275L19.9233 3.84578L15.9797 7.86275L10.4281 6.93095L9.59878 12.4987L4.55978 15.008L7.16151 19.9999L4.55978 24.9918L9.59878 27.5011L10.4281 33.0689L15.9797 32.137L19.9233 36.154L23.8669 32.137L29.4184 33.0689L30.2477 27.5011L35.2867 24.9918L32.685 19.9999L35.2867 15.008L30.2477 12.4987L29.4184 6.93095Z" fill="#FF5900"/>
</g>
<defs>
<clipPath id="clip0_18_322">
<rect width="39" height="39" fill="white" transform="translate(0 0.5)"/>
</clipPath>
</defs>
</svg>
