<?xml version="1.0" standalone="no"?>
<!DOCTYPE svg PUBLIC "-//W3C//DTD SVG 20010904//EN"
 "http://www.w3.org/TR/2001/REC-SVG-20010904/DTD/svg10.dtd">
<svg version="1.0" xmlns="http://www.w3.org/2000/svg"
 width="512.000000pt" height="512.000000pt" viewBox="0 0 512.000000 512.000000"
 preserveAspectRatio="xMidYMid meet">
<metadata>
Created by potrace 1.16, written by Peter Selinger 2001-2019
</metadata>
<g transform="translate(0.000000,512.000000) scale(0.100000,-0.100000)"
fill="#000000" stroke="none">
<path d="M392 4140 c-48 -30 -72 -75 -72 -140 0 -65 24 -110 72 -140 33 -20
55 -20 2168 -20 2113 0 2135 0 2168 20 48 30 72 75 72 140 0 65 -24 110 -72
140 -33 20 -55 20 -2168 20 -2113 0 -2135 0 -2168 -20z"/>
<path d="M392 2700 c-48 -30 -72 -75 -72 -140 0 -65 24 -110 72 -140 33 -20
55 -20 1848 -20 1793 0 1815 0 1848 20 48 30 72 75 72 140 0 65 -24 110 -72
140 -33 20 -55 20 -1848 20 -1793 0 -1815 0 -1848 -20z"/>
<path d="M392 1260 c-48 -30 -72 -75 -72 -140 0 -65 24 -110 72 -140 32 -20
53 -20 1128 -20 1075 0 1096 0 1128 20 48 30 72 75 72 140 0 65 -24 110 -72
140 -32 20 -53 20 -1128 20 -1075 0 -1096 0 -1128 -20z"/>
</g>
</svg>
